<svg width="106" height="24" viewBox="0 0 106 24" fill="#151515" xmlns="http://www.w3.org/2000/svg">
    <path
        d="M22.6271 10.6066L13.4347 1.41421C12.6537 0.633165 11.3873 0.633165 10.6063 1.41421L1.41391 10.6066C0.632858 11.3876 0.632858 12.654 1.41391 13.435L10.6063 22.6274C11.3873 23.4085 12.6537 23.4085 13.4347 22.6274L22.6271 13.435C23.4082 12.654 23.4082 11.3876 22.6271 10.6066Z" />
    <path
        d="M39.1968 8.6586C39.14 8.08568 38.8962 7.6406 38.4653 7.32337C38.0344 7.00613 37.4497 6.84752 36.711 6.84752C36.2091 6.84752 35.7854 6.91854 35.4397 7.06059C35.0941 7.1979 34.8289 7.38966 34.6443 7.63587C34.4643 7.88208 34.3744 8.16144 34.3744 8.47394C34.3649 8.73435 34.4194 8.96163 34.5377 9.15576C34.6608 9.34988 34.8289 9.51797 35.042 9.66002C35.2551 9.79733 35.5013 9.91807 35.7806 10.0222C36.06 10.1217 36.3583 10.2069 36.6755 10.2779L37.9823 10.5904C38.6168 10.7325 39.1992 10.9219 39.7295 11.1586C40.2598 11.3953 40.7191 11.6865 41.1073 12.0322C41.4956 12.3778 41.7963 12.785 42.0093 13.2538C42.2271 13.7225 42.3384 14.2599 42.3431 14.866C42.3384 15.7561 42.1111 16.5279 41.6613 17.1813C41.2162 17.83 40.5723 18.3343 39.7295 18.6941C38.8914 19.0492 37.8805 19.2268 36.6968 19.2268C35.5226 19.2268 34.4999 19.0469 33.6286 18.687C32.7622 18.3272 32.0851 17.7945 31.5974 17.089C31.1144 16.3788 30.8611 15.5005 30.8374 14.4541H33.8133C33.8464 14.9417 33.9861 15.3489 34.2323 15.6756C34.4833 15.9976 34.8171 16.2415 35.2338 16.4072C35.6552 16.5682 36.131 16.6487 36.6613 16.6487C37.1821 16.6487 37.6343 16.5729 38.0178 16.4214C38.4061 16.2699 38.7068 16.0592 38.9198 15.7893C39.1329 15.5194 39.2394 15.2093 39.2394 14.8589C39.2394 14.5322 39.1424 14.2576 38.9482 14.035C38.7588 13.8125 38.4795 13.6231 38.1102 13.4668C37.7456 13.3106 37.2981 13.1685 36.7678 13.0407L35.184 12.643C33.9577 12.3447 32.9894 11.8783 32.2792 11.2438C31.569 10.6094 31.2162 9.75471 31.221 8.6799C31.2162 7.79922 31.4506 7.02981 31.9241 6.37167C32.4023 5.71352 33.0581 5.19979 33.8914 4.83047C34.7248 4.46115 35.6717 4.27649 36.7323 4.27649C37.8119 4.27649 38.7541 4.46115 39.559 4.83047C40.3687 5.19979 40.9984 5.71352 41.4482 6.37167C41.8981 7.02981 42.1301 7.79212 42.1443 8.6586H39.1968ZM43.9117 19.0208V4.47536H49.6503C50.7535 4.47536 51.6934 4.68606 52.4699 5.10746C53.2464 5.52413 53.8383 6.10415 54.2455 6.84752C54.6574 7.58615 54.8634 8.43843 54.8634 9.40434C54.8634 10.3702 54.655 11.2225 54.2384 11.9612C53.8217 12.6998 53.218 13.2751 52.4273 13.687C51.6413 14.0989 50.6896 14.3049 49.5722 14.3049H45.9145V11.8404H49.075C49.6669 11.8404 50.1546 11.7386 50.5381 11.535C50.9263 11.3267 51.2152 11.0402 51.4046 10.6756C51.5987 10.3063 51.6958 9.88256 51.6958 9.40434C51.6958 8.92138 51.5987 8.49998 51.4046 8.14013C51.2152 7.77555 50.9263 7.49382 50.5381 7.29496C50.1498 7.09136 49.6574 6.98956 49.0608 6.98956H46.9869V19.0208H43.9117ZM57.1883 19.0208H53.8928L58.9142 4.47536H62.8772L67.8914 19.0208H64.596L60.9525 7.79922H60.8389L57.1883 19.0208ZM56.9823 13.3035H64.7664V15.7041H56.9823V13.3035ZM69.1421 19.0208V4.47536H74.8808C75.9793 4.47536 76.9168 4.67185 77.6933 5.06485C78.4745 5.4531 79.0687 6.00471 79.4759 6.71968C79.8879 7.4299 80.0938 8.2656 80.0938 9.22678C80.0938 10.1927 79.8855 11.0237 79.4688 11.7197C79.0522 12.411 78.4485 12.9413 77.6578 13.3106C76.8718 13.6799 75.9201 13.8646 74.8026 13.8646H70.9603V11.393H74.3055C74.8926 11.393 75.3803 11.3125 75.7686 11.1515C76.1568 10.9905 76.4456 10.749 76.635 10.4271C76.8292 10.1051 76.9262 9.705 76.9262 9.22678C76.9262 8.74382 76.8292 8.33663 76.635 8.00519C76.4456 7.67375 76.1544 7.4228 75.7615 7.25235C75.3732 7.07716 74.8831 6.98956 74.2913 6.98956H72.2174V19.0208H69.1421ZM76.9972 12.4015L80.6123 19.0208H77.2174L73.6805 12.4015H76.9972ZM81.7671 19.0208V4.47536H84.8424V10.8887H85.0342L90.2686 4.47536H93.9546L88.5569 10.9881L94.0186 19.0208H90.3396L86.3552 13.0407L84.8424 14.8873V19.0208H81.7671ZM102.83 8.6586C102.773 8.08568 102.529 7.6406 102.098 7.32337C101.667 7.00613 101.082 6.84752 100.344 6.84752C99.8419 6.84752 99.4182 6.91854 99.0725 7.06059C98.7269 7.1979 98.4617 7.38966 98.2771 7.63587C98.0972 7.88208 98.0072 8.16144 98.0072 8.47394C97.9977 8.73435 98.0522 8.96163 98.1705 9.15576C98.2936 9.34988 98.4617 9.51797 98.6748 9.66002C98.8879 9.79733 99.1341 9.91807 99.4134 10.0222C99.6928 10.1217 99.9911 10.2069 100.308 10.2779L101.615 10.5904C102.25 10.7325 102.832 10.9219 103.362 11.1586C103.893 11.3953 104.352 11.6865 104.74 12.0322C105.128 12.3778 105.429 12.785 105.642 13.2538C105.86 13.7225 105.971 14.2599 105.976 14.866C105.971 15.7561 105.744 16.5279 105.294 17.1813C104.849 17.83 104.205 18.3343 103.362 18.6941C102.524 19.0492 101.513 19.2268 100.33 19.2268C99.1554 19.2268 98.1327 19.0469 97.2615 18.687C96.395 18.3272 95.7179 17.7945 95.2302 17.089C94.7472 16.3788 94.4939 15.5005 94.4703 14.4541H97.4461C97.4793 14.9417 97.6189 15.3489 97.8651 15.6756C98.1161 15.9976 98.4499 16.2415 98.8666 16.4072C99.288 16.5682 99.7638 16.6487 100.294 16.6487C100.815 16.6487 101.267 16.5729 101.651 16.4214C102.039 16.2699 102.34 16.0592 102.553 15.7893C102.766 15.5194 102.872 15.2093 102.872 14.8589C102.872 14.5322 102.775 14.2576 102.581 14.035C102.392 13.8125 102.112 13.6231 101.743 13.4668C101.378 13.3106 100.931 13.1685 100.401 13.0407L98.8169 12.643C97.5905 12.3447 96.6222 11.8783 95.912 11.2438C95.2018 10.6094 94.849 9.75471 94.8538 8.6799C94.849 7.79922 95.0834 7.02981 95.5569 6.37167C96.0351 5.71352 96.6909 5.19979 97.5242 4.83047C98.3576 4.46115 99.3045 4.27649 100.365 4.27649C101.445 4.27649 102.387 4.46115 103.192 4.83047C104.002 5.19979 104.631 5.71352 105.081 6.37167C105.531 7.02981 105.763 7.79212 105.777 8.6586H102.83Z" />
</svg>