<svg width="160" height="93" viewBox="0 0 160 93" fill="#151515" xmlns="http://www.w3.org/2000/svg">
    <path
        d="M98.8848 17.3848L83.3284 1.82843C81.7663 0.26633 79.2337 0.26633 77.6716 1.82843L62.1152 17.3848C60.5531 18.9469 60.5531 21.4795 62.1152 23.0416L77.6716 38.598C79.2337 40.1601 81.7663 40.1601 83.3284 38.598L98.8848 23.0416C100.447 21.4795 100.447 18.9469 98.8848 17.3848Z" />
    <path
        d="M18.2251 70.6658C18.1058 69.4626 17.5938 68.528 16.6889 67.8618C15.7841 67.1956 14.5561 66.8625 13.005 66.8625C11.951 66.8625 11.0611 67.0116 10.3352 67.3099C9.60938 67.5983 9.05256 68.001 8.66477 68.518C8.28693 69.0351 8.09801 69.6217 8.09801 70.278C8.07813 70.8248 8.19247 71.3021 8.44105 71.7098C8.69957 72.1175 9.05256 72.4704 9.5 72.7687C9.94744 73.0571 10.4645 73.3106 11.0511 73.5294C11.6378 73.7382 12.2642 73.9172 12.9304 74.0663L15.6747 74.7226C17.0071 75.0209 18.2301 75.4186 19.3438 75.9158C20.4574 76.4129 21.4219 77.0244 22.2372 77.7503C23.0526 78.4761 23.6839 79.3312 24.1314 80.3156C24.5888 81.3 24.8224 82.4285 24.8324 83.7013C24.8224 85.5706 24.3452 87.1913 23.4006 88.5635C22.4659 89.9257 21.1136 90.9846 19.3438 91.7403C17.5838 92.4861 15.4609 92.8589 12.9751 92.8589C10.5092 92.8589 8.36151 92.4811 6.53196 91.7254C4.71236 90.9697 3.29048 89.8511 2.26634 88.3696C1.25213 86.8781 0.72017 85.0337 0.670455 82.8362H6.91974C6.98935 83.8604 7.28267 84.7155 7.79972 85.4015C8.3267 86.0777 9.0277 86.5898 9.9027 86.9378C10.7876 87.2758 11.7869 87.4449 12.9006 87.4449C13.9943 87.4449 14.9439 87.2858 15.7493 86.9676C16.5646 86.6494 17.196 86.2069 17.6435 85.6402C18.0909 85.0734 18.3146 84.4221 18.3146 83.6863C18.3146 83.0003 18.1108 82.4236 17.7031 81.9562C17.3054 81.4889 16.7188 81.0912 15.9432 80.7631C15.1776 80.4349 14.2379 80.1366 13.1243 79.8682L9.7983 79.0329C7.22301 78.4065 5.18963 77.4271 3.69815 76.0947C2.20668 74.7623 1.46591 72.9676 1.47585 70.7105C1.46591 68.8611 1.9581 67.2453 2.95241 65.8632C3.95668 64.4811 5.33381 63.4023 7.08381 62.6267C8.83381 61.8511 10.8224 61.4633 13.0497 61.4633C15.3168 61.4633 17.2955 61.8511 18.9858 62.6267C20.6861 63.4023 22.0085 64.4811 22.9531 65.8632C23.8977 67.2453 24.3849 68.8462 24.4148 70.6658H18.2251ZM28.3363 92.4264V61.881H40.3875C42.7042 61.881 44.6779 62.3234 46.3086 63.2084C47.9393 64.0834 49.1822 65.3014 50.0373 66.8625C50.9024 68.4136 51.3349 70.2034 51.3349 72.2318C51.3349 74.2602 50.8974 76.05 50.0224 77.6011C49.1474 79.1523 47.8796 80.3604 46.2191 81.2254C44.5686 82.0905 42.57 82.523 40.2234 82.523H32.5423V77.3476H39.1794C40.4223 77.3476 41.4464 77.1338 42.2518 76.7062C43.0671 76.2687 43.6737 75.6672 44.0714 74.9015C44.4791 74.126 44.6829 73.2361 44.6829 72.2318C44.6829 71.2176 44.4791 70.3327 44.0714 69.577C43.6737 68.8113 43.0671 68.2197 42.2518 67.8021C41.4365 67.3746 40.4024 67.1608 39.1495 67.1608H34.7944V92.4264H28.3363ZM56.4272 92.4264H49.5068L60.0515 61.881H68.374L78.9038 92.4264H71.9834L64.3321 68.8611H64.0934L56.4272 92.4264ZM55.9947 80.42H72.3413V85.4612H55.9947V80.42ZM81.7403 92.4264V61.881H93.7914C96.0983 61.881 98.067 62.2936 99.6977 63.1189C101.338 63.9342 102.586 65.0926 103.441 66.594C104.306 68.0855 104.739 69.8405 104.739 71.8589C104.739 73.8873 104.301 75.6324 103.426 77.094C102.551 78.5457 101.284 79.6594 99.6231 80.4349C97.9725 81.2105 95.974 81.5983 93.6274 81.5983H85.5585V76.4079H92.5833C93.8163 76.4079 94.8404 76.2389 95.6558 75.9008C96.4711 75.5628 97.0777 75.0557 97.4754 74.3795C97.8831 73.7034 98.0869 72.8632 98.0869 71.8589C98.0869 70.8447 97.8831 69.9896 97.4754 69.2936C97.0777 68.5976 96.4662 68.0706 95.6409 67.7126C94.8255 67.3447 93.7964 67.1608 92.5535 67.1608H88.1984V92.4264H81.7403ZM98.236 78.5258L105.828 92.4264H98.6984L91.2708 78.5258H98.236ZM108.463 92.4264V61.881H114.921V75.349H115.324L126.316 61.881H134.057L122.721 75.5578L134.191 92.4264H126.465L118.098 79.8682L114.921 83.746V92.4264H108.463ZM152.904 70.6658C152.785 69.4626 152.273 68.528 151.368 67.8618C150.463 67.1956 149.235 66.8625 147.684 66.8625C146.63 66.8625 145.74 67.0116 145.014 67.3099C144.288 67.5983 143.731 68.001 143.344 68.518C142.966 69.0351 142.777 69.6217 142.777 70.278C142.757 70.8248 142.871 71.3021 143.12 71.7098C143.378 72.1175 143.731 72.4704 144.179 72.7687C144.626 73.0571 145.143 73.3106 145.73 73.5294C146.317 73.7382 146.943 73.9172 147.609 74.0663L150.354 74.7226C151.686 75.0209 152.909 75.4186 154.023 75.9158C155.136 76.4129 156.101 77.0244 156.916 77.7503C157.731 78.4761 158.363 79.3312 158.81 80.3156C159.268 81.3 159.501 82.4285 159.511 83.7013C159.501 85.5706 159.024 87.1913 158.079 88.5635C157.145 89.9257 155.793 90.9846 154.023 91.7403C152.263 92.4861 150.14 92.8589 147.654 92.8589C145.188 92.8589 143.04 92.4811 141.211 91.7254C139.391 90.9697 137.969 89.8511 136.945 88.3696C135.931 86.8781 135.399 85.0337 135.349 82.8362H141.599C141.668 83.8604 141.962 84.7155 142.479 85.4015C143.006 86.0777 143.707 86.5898 144.582 86.9378C145.467 87.2758 146.466 87.4449 147.579 87.4449C148.673 87.4449 149.623 87.2858 150.428 86.9676C151.244 86.6494 151.875 86.2069 152.322 85.6402C152.77 85.0734 152.994 84.4221 152.994 83.6863C152.994 83.0003 152.79 82.4236 152.382 81.9562C151.984 81.4889 151.398 81.0912 150.622 80.7631C149.856 80.4349 148.917 80.1366 147.803 79.8682L144.477 79.0329C141.902 78.4065 139.869 77.4271 138.377 76.0947C136.886 74.7623 136.145 72.9676 136.155 70.7105C136.145 68.8611 136.637 67.2453 137.631 65.8632C138.636 64.4811 140.013 63.4023 141.763 62.6267C143.513 61.8511 145.501 61.4633 147.729 61.4633C149.996 61.4633 151.974 61.8511 153.665 62.6267C155.365 63.4023 156.687 64.4811 157.632 65.8632C158.577 67.2453 159.064 68.8462 159.094 70.6658H152.904Z" />
</svg>